<svg xmlns="http://www.w3.org/2000/svg" width="197" height="33" viewBox="0 0 197 33">
  <g fill="#fff" transform="translate(0 -3)">
    <path d="M59.168731,11.8147516 C63.6098022,11.8147516 67.1374612,15.2925588 67.1374612,19.7594669 C67.1374612,24.1944688 63.6098022,27.7041823 59.168731,27.7041823 C54.7276597,27.7041823 51.2,24.1944688 51.2,19.7594669 C51.2,15.2925588 54.7276597,11.8147516 59.168731,11.8147516 Z M59.168731,24.1306558 C61.7199847,24.1306558 63.2948324,22.1205471 63.2948324,19.7594669 C63.2948324,17.398387 61.7199847,15.3882782 59.168731,15.3882782 C56.6174772,15.3882782 55.0426288,17.398387 55.0426288,19.7594669 C55.0426288,22.1205471 56.6174772,24.1306558 59.168731,24.1306558 Z M87.2325218,11.8147516 C90.2562299,11.8147516 92.4610166,13.9524864 92.4610166,17.5898258 L92.4610166,27.3213046 L90.2952503,27.3213046 C89.4011985,27.3213046 88.6813815,26.5896846 88.6813815,25.6871857 L88.6813815,18.578927 C88.6813815,16.5050053 87.893958,15.3882782 86.0041404,15.3882782 C84.0198319,15.3882782 83.0749231,17.3345739 83.0749231,17.3345739 L83.0749231,27.3213046 L80.9091567,27.3213046 C80.0151051,27.3213046 79.295288,26.5896846 79.295288,25.6871857 L79.295288,18.578927 C79.295288,16.5050053 78.5078638,15.3882782 76.6180463,15.3882782 C74.6337378,15.3882782 73.688829,17.3345739 73.688829,17.3345739 L73.688829,27.3213046 L71.5230628,27.3213046 C70.6290109,27.3213046 69.9091939,26.5902448 69.9091939,25.688437 L69.9091939,12.1976295 L71.8278704,12.1976295 C72.7144666,12.1976295 73.4368536,12.9294623 73.4368536,13.8322239 L73.4368536,14.399177 C73.4368536,14.399177 74.7912224,11.8147516 77.8464277,11.8147516 C81.437081,11.8147516 82.4764807,14.4629901 82.4764807,14.4629901 C82.4764807,14.4629901 83.7363593,11.8147516 87.2325218,11.8147516 Z M104.24088,11.8147516 C107.1386,11.8147516 109.721351,13.8886733 109.721351,17.5260128 L109.721351,27.3213046 L107.555584,27.3213046 C106.661533,27.3213046 105.941716,26.5909275 105.941716,25.6899618 L105.941716,18.4832075 C105.941716,16.3135663 104.618843,15.3882782 102.981001,15.3882782 C101.02819,15.3882782 100.020287,17.3345739 100.020287,17.3345739 L100.020287,27.3213046 L97.8545205,27.3213046 C96.9604687,27.3213046 96.2406518,26.5902448 96.2406518,25.688437 L96.2406518,12.1976295 L98.1593283,12.1976295 C99.0459243,12.1976295 99.7683115,12.9294623 99.7683115,13.8322239 L99.7683115,14.399177 C99.7683115,14.399177 101.091184,11.8147516 104.24088,11.8147516 Z M114.099428,25.688437 L114.099428,12.1976295 L116.265194,12.1976295 C117.159246,12.1976295 117.879063,12.9286891 117.879063,13.8304971 L117.879063,27.3213046 L115.713297,27.3213046 C114.819245,27.3213046 114.099428,26.5902448 114.099428,25.688437 Z M114.099428,8.26663214 L114.099428,4.97777778 L116.265194,4.97777778 C117.159246,4.97777778 117.879063,5.73393447 117.879063,6.66670122 L117.879063,9.95555556 L115.713297,9.95555556 C114.819245,9.95555556 114.099428,9.19939874 114.099428,8.26663214 Z M122.698098,25.6917597 L122.698098,3.2 L124.863864,3.2 C125.757916,3.2 126.477733,3.92957207 126.477733,4.82954483 L126.477733,27.3213046 L124.311966,27.3213046 C123.417915,27.3213046 122.698098,26.5917325 122.698098,25.6917597 Z M148.857125,15.6435301 L148.857125,12.1976295 L148.857125,7.69881474 L151.022892,7.69881474 C151.916943,7.69881474 152.636761,8.43168059 152.636761,9.33571641 L152.636761,12.1976295 L155.527476,12.1976295 C156.417169,12.1976295 157.140826,12.9283586 157.140826,13.8297585 L157.140826,15.6435301 L152.636761,15.6435301 L152.636761,21.7376692 C152.636761,23.5882455 153.581669,24.1306558 154.589572,24.1306558 C155.031856,24.1306558 155.440062,23.9839438 155.730007,23.8431233 C155.997565,23.713176 156.306913,23.9097432 156.378159,24.070492 C156.638632,24.6581785 157.029341,25.5397083 157.550286,26.7150813 C157.550286,26.7150813 156.132923,27.7041823 153.959633,27.7041823 C151.061912,27.7041823 148.857125,25.5664477 148.857125,22.3438924 L148.857125,15.6435301 Z M160.825969,25.688437 L160.825969,12.1976295 L162.991736,12.1976295 C163.885788,12.1976295 164.605605,12.9286891 164.605605,13.8304971 L164.605605,27.3213046 L162.439838,27.3213046 C161.545787,27.3213046 160.825969,26.5902448 160.825969,25.688437 Z M160.825969,8.26663214 L160.825969,4.97777778 L162.991736,4.97777778 C163.885788,4.97777778 164.605605,5.73393447 164.605605,6.66670122 L164.605605,9.95555556 L162.439838,9.95555556 C161.545787,9.95555556 160.825969,9.19939874 160.825969,8.26663214 Z M176.007503,24.1306558 C177.761978,24.1306558 178.846155,23.2554825 179.352225,22.708834 C179.582053,22.4605786 179.869008,22.4609936 180.130832,22.7295791 C180.631012,23.2426774 181.443097,24.0757342 181.933368,24.578666 C182.015881,24.6633101 182.089056,24.9557483 181.90759,25.1510421 C181.212779,25.8987931 179.204214,27.7041823 176.007503,27.7041823 C171.534936,27.7041823 167.975779,24.1944688 167.975779,19.7594669 C167.975779,15.2925588 171.534936,11.8147516 176.007503,11.8147516 C178.909356,11.8147516 180.816661,13.2923885 181.645244,14.1037809 C181.958837,14.4108678 181.777717,14.9297751 181.607618,15.0834014 C181.207707,15.4445844 180.636765,15.960235 179.894793,16.6303533 C179.769309,16.7436849 179.375525,16.8171828 179.12561,16.5918444 C178.60175,16.1195011 177.542833,15.3882782 176.007503,15.3882782 C173.45625,15.3882782 171.818408,17.398387 171.818408,19.7594669 C171.818408,22.1205471 173.45625,24.1306558 176.007503,24.1306558 Z M184.082904,25.3465633 C183.824327,25.113048 183.916673,24.6656924 184.022455,24.5265481 C184.649181,23.7021589 185.131419,23.0678276 185.469169,22.6235541 C185.580465,22.4771561 185.95927,22.3551619 186.239691,22.6009194 C186.958714,23.2310618 188.494353,24.3540012 190.307123,24.3540012 C191.850475,24.3540012 193.141849,23.9073103 193.141849,22.9820223 C193.141849,21.9929212 192.448917,21.8014822 190.181135,21.3228849 C187.220421,20.6847552 184.637671,19.4084956 184.637671,16.5369118 C184.637671,14.1758316 186.968445,11.8147516 191.06305,11.8147516 C193.524589,11.8147516 195.381235,12.801976 196.203448,13.3343084 C196.506954,13.5308097 196.433392,14.016135 196.323123,14.1799668 C195.792814,14.9678653 195.382597,15.5773396 195.092472,16.0083895 C194.988212,16.1632926 194.572699,16.3138942 194.217552,16.1065642 C193.554666,15.7195801 192.37563,15.1649329 191.06305,15.1649329 C189.645687,15.1649329 188.354312,15.6754367 188.354312,16.6007247 C188.354312,17.5260128 189.362215,17.7493582 191.881972,18.2917687 C194.842686,18.9298983 196.952982,19.9189995 196.952982,23.0458352 C196.952982,25.6302606 194.244243,27.7041823 190.433112,27.7041823 C187.088247,27.7041823 184.920009,26.1025324 184.082904,25.3465633 Z M129.438447,33.44735 L131.202277,30.4800467 C131.202277,30.4800467 132.21018,31.469148 133.186585,31.469148 C134.477961,31.469148 135.013409,31.0862701 135.737839,29.2356939 L136.336281,27.672276 L129.060484,12.1976295 L132.170783,12.1976295 C132.769037,12.1976295 133.451794,12.6418839 133.701237,13.1898995 L138.289093,23.2691807 L142.226212,12.1976295 L144.683474,12.1976295 C145.562918,12.1976295 146.0239,12.8756513 145.696489,13.7120336 L139.045019,30.7033923 C137.753645,34.0216669 135.643348,35.0426745 133.438561,35.0426745 C131.17078,35.0426745 129.438447,33.44735 129.438447,33.44735 Z"/>
    <path stroke="#babcc6" stroke-width=".2" d="M34.9559116,21.9350548 C35.98855,21.9350548 36.8256687,21.0890103 36.8256687,20.0500931 L36.8256687,18.1651316 L5.03487545,18.1651316 C4.00223725,18.1651316 3.16511858,19.0111759 3.16511858,20.0500931 L3.16511858,21.9350548 L34.9559116,21.9350548 Z M3.16511858,12.510247 L21.864578,12.510247 C22.8978346,12.510247 23.7354547,11.6642027 23.7354547,10.6252855 L23.7354547,8.74032393 L5.03599534,8.74032393 C4.00273865,8.74032393 3.16511858,9.58636824 3.16511858,10.6252855 L3.16511858,12.510247 Z M16.2934956,31.3598624 L34.992955,31.3598624 C36.0262116,31.3598624 36.8638318,30.5138181 36.8638318,29.4749009 L36.8638318,27.5899395 L18.1643724,27.5899395 C17.1311157,27.5899395 16.2934956,28.4359837 16.2934956,29.4749009 L16.2934956,31.3598624 Z" transform="rotate(-45 20.014 20.05)"/>
  </g>
</svg>
